<svg id="Capa_1" enable-background="new 0 0 510 510" height="512" viewBox="0 0 510 510" width="512" xmlns="http://www.w3.org/2000/svg" xmlns:xlink="http://www.w3.org/1999/xlink"><linearGradient id="lg1"><stop offset="0" stop-color="#d4f7ff"/><stop offset="1" stop-color="#a2e3e9"/></linearGradient><linearGradient id="SVGID_1_" gradientUnits="userSpaceOnUse" x1="167.034" x2="335.429" xlink:href="#lg1" y1="116.751" y2="469.005"/><linearGradient id="SVGID_2_" gradientUnits="userSpaceOnUse" x1="469.621" x2="451.33" xlink:href="#lg1" y1="214.428" y2="69.931"/><linearGradient id="lg2"><stop offset="0" stop-color="#a2e3e9" stop-opacity="0"/><stop offset="1" stop-color="#518cd2"/></linearGradient><linearGradient id="SVGID_3_" gradientTransform="matrix(-1 0 0 1 3702 0)" gradientUnits="userSpaceOnUse" x1="3497.552" x2="3497.552" xlink:href="#lg2" y1="388.469" y2="486.235"/><linearGradient id="lg3"><stop offset="0" stop-color="#a34a9e"/><stop offset="1" stop-color="#343168"/></linearGradient><linearGradient id="SVGID_4_" gradientTransform="matrix(1 0 0 -1 -97.218 -4705.766)" gradientUnits="userSpaceOnUse" x1="236.134" x2="236.134" xlink:href="#lg3" y1="-5098.837" y2="-4749.287"/><linearGradient id="SVGID_5_" gradientTransform="matrix(1 0 0 -1 -97.218 -4705.766)" gradientUnits="userSpaceOnUse" x1="236.134" x2="236.134" xlink:href="#lg3" y1="-5033.927" y2="-4684.376"/><linearGradient id="SVGID_6_" gradientTransform="matrix(1 0 0 -1 -97.218 -4705.766)" gradientUnits="userSpaceOnUse" x1="279.173" x2="279.173" xlink:href="#lg3" y1="-4969.017" y2="-4619.466"/><linearGradient id="SVGID_7_" gradientUnits="userSpaceOnUse" x1="468.07" x2="349.093" xlink:href="#lg2" y1="402.239" y2="283.262"/><linearGradient id="SVGID_8_" gradientUnits="userSpaceOnUse" x1="347.569" x2="438.827" y1="179.576" y2="370.582"><stop offset="0" stop-color="#c4f8b6"/><stop offset=".2416" stop-color="#c1f6b6"/><stop offset=".4094" stop-color="#b8efb5"/><stop offset=".5548" stop-color="#a9e3b4"/><stop offset=".6875" stop-color="#93d2b2"/><stop offset=".8115" stop-color="#77bcb0"/><stop offset=".9274" stop-color="#55a2ae"/><stop offset="1" stop-color="#3b8eac"/></linearGradient><path d="m390.487 457.904h-372.079c-10.166 0-18.408-8.241-18.408-18.408v-336.848c0-27.919 22.633-50.552 50.552-50.552h408.895c-27.919 0-50.552 22.633-50.552 50.552v336.849c0 10.166-8.241 18.407-18.408 18.407z" fill="url(#SVGID_1_)"/><path d="m408.895 168.706h82.696c10.167 0 18.408-8.242 18.408-18.408v-47.65c0-27.919-22.633-50.552-50.552-50.552-27.919 0-50.552 22.633-50.552 50.552z" fill="url(#SVGID_2_)"/><path d="m408.895 353.413v86.083c0 10.167-8.242 18.408-18.408 18.408h-372.079c-10.166.001-18.408-8.241-18.408-18.408v-86.083z" fill="url(#SVGID_3_)"/><path d="m213.295 296.354h-148.759c-2.962 0-5.363 2.401-5.363 5.363v11.619c0 2.962 2.401 5.363 5.363 5.363h148.76c2.962 0 5.363-2.401 5.363-5.363v-11.619c-.001-2.962-2.402-5.363-5.364-5.363z" fill="url(#SVGID_4_)"/><path d="m213.295 231.444h-148.759c-2.962 0-5.363 2.401-5.363 5.363v11.619c0 2.962 2.401 5.363 5.363 5.363h148.76c2.962 0 5.363-2.401 5.363-5.363v-11.619c-.001-2.962-2.402-5.363-5.364-5.363z" fill="url(#SVGID_5_)"/><path d="m299.374 166.534h-234.838c-2.962 0-5.363 2.401-5.363 5.363v11.619c0 2.962 2.401 5.363 5.363 5.363h234.838c2.962 0 5.363-2.401 5.363-5.363v-11.619c0-2.962-2.401-5.363-5.363-5.363z" fill="url(#SVGID_6_)"/><path d="m341.463 291c-2.968 2.968-7.779 2.968-10.747 0l-26.873-26.873c-12.893-12.893-33.797-12.893-46.691 0-12.893 12.893-12.893 33.797 0 46.691l143.808 143.808c4.792-3.323 7.936-8.856 7.936-15.129v-215.93z" fill="url(#SVGID_7_)"/><path d="m330.715 291-26.873-26.873c-12.893-12.893-33.797-12.893-46.69 0-12.893 12.893-12.893 33.797 0 46.69l40.17 40.17c21.41 21.41 56.123 21.41 77.534 0l125.474-125.473c12.893-12.893 12.893-33.797 0-46.69-12.893-12.893-33.797-12.893-46.691 0l-112.176 112.176c-2.968 2.968-7.78 2.968-10.748 0z" fill="url(#SVGID_8_)"/></svg>