<svg width="317" height="56" viewBox="0 0 317 56" fill="none" xmlns="http://www.w3.org/2000/svg">
<path d="M73.9262 21.2469L68.6152 15.9359L63.3042 10.625L57.9902 5.31401L52.6823 0.00305176H52.6793L40.0074 12.6749L45.3183 17.9859L52.6793 10.625L57.9902 15.9359L63.3012 21.2469L66.0344 23.9802C67.459 25.4048 67.459 27.714 66.0344 29.1386L63.3042 31.8719H63.3012L57.9933 37.1829L52.6823 42.4938H52.6793L43.1708 32.9853H32.5488L36.7464 37.1829L42.0543 42.4938H42.0573L52.6793 53.1158H52.6823L57.9902 47.8048L63.3042 42.4938L68.6152 37.1829L73.9231 31.8719H73.9262L73.9292 31.8689C76.8608 28.9342 76.8608 24.1785 73.9262 21.2469Z" fill="#020202"/>
<path d="M18.1346 37.1829L12.8236 31.8719V31.8689L10.3527 29.3979C8.78476 27.83 8.78476 25.2858 10.3527 23.7179L12.8236 21.2469C15.7582 18.3123 15.7582 13.5596 12.8236 10.625L2.20172 21.2469L2.19867 21.25C-0.732889 24.1846 -0.732889 28.9373 2.19867 31.8719H2.20172L23.4456 53.1158H23.4486C26.3832 50.1812 26.3832 45.4284 23.4486 42.4938L18.1346 37.1829Z" fill="#020202"/>
<path d="M23.3452 30.2399H46.3217C48.3564 28.2052 48.3564 24.9075 46.3248 22.8759L46.1783 22.7295L44.6927 21.2439H44.6897L39.3818 15.9329L34.0708 10.6219L28.7568 5.31098L23.4489 0H23.4458C20.5112 2.93461 20.5112 7.68733 23.4458 10.6219H23.4489L28.7598 15.9329L34.0677 21.2439H34.0098L35.4954 22.7295H23.4855C22.5093 22.7295 21.5728 23.1169 20.8803 23.8094L20.7369 23.9527C19.3001 25.3895 19.2971 27.7232 20.7369 29.163C21.4294 29.8525 22.3659 30.2399 23.3452 30.2399Z" fill="#020202"/>
<path d="M101 45.25V12H119.2V16.5H105.35V26.6H114.65V30.7H105.35V40.75H119.2V45.25H101Z" fill="#020202"/>
<path d="M136.843 45.7C134.943 45.7 133.36 45.4 132.093 44.8C130.827 44.1667 129.677 43.1833 128.643 41.85V55.9H124.193V20.85H128.643V24.35C129.677 23.0833 130.91 22.0667 132.343 21.3C133.777 20.5333 135.277 20.15 136.843 20.15C138.543 20.15 140.16 20.4833 141.693 21.15C143.26 21.7833 144.61 22.7 145.743 23.9C146.91 25.1 147.81 26.4833 148.443 28.05C149.11 29.5833 149.443 31.2167 149.443 32.95C149.443 34.6833 149.11 36.3167 148.443 37.85C147.81 39.3833 146.91 40.75 145.743 41.95C144.61 43.1167 143.26 44.0333 141.693 44.7C140.16 45.3667 138.543 45.7 136.843 45.7ZM136.843 24.7C135.743 24.7 134.693 24.9167 133.693 25.35C132.693 25.75 131.827 26.3333 131.093 27.1C130.36 27.8667 129.777 28.7667 129.343 29.8C128.91 30.8 128.693 31.85 128.693 32.95C128.693 34.05 128.91 35.1 129.343 36.1C129.777 37.1 130.36 37.9833 131.093 38.75C131.827 39.5167 132.693 40.1167 133.693 40.55C134.693 40.9833 135.743 41.2 136.843 41.2C137.943 41.2 138.993 40.9833 139.993 40.55C140.993 40.1167 141.86 39.5167 142.593 38.75C143.327 37.9833 143.893 37.1 144.293 36.1C144.727 35.1 144.943 34.05 144.943 32.95C144.943 31.85 144.727 30.8 144.293 29.8C143.893 28.7667 143.327 27.8667 142.593 27.1C141.86 26.3333 140.993 25.75 139.993 25.35C138.993 24.9167 137.943 24.7 136.843 24.7Z" fill="#020202"/>
<path d="M166.08 45.5C164.38 45.5 162.763 45.1667 161.23 44.5C159.696 43.8333 158.346 42.9167 157.18 41.75C156.013 40.5833 155.096 39.2333 154.43 37.7C153.763 36.1667 153.43 34.55 153.43 32.85C153.43 31.1167 153.763 29.4667 154.43 27.9C155.096 26.3333 156.013 24.9667 157.18 23.8C158.346 22.6333 159.696 21.7333 161.23 21.1C162.763 20.4333 164.38 20.1 166.08 20.1C167.813 20.1 169.463 20.4333 171.03 21.1C172.596 21.7333 173.963 22.6333 175.13 23.8C176.296 24.9667 177.196 26.3333 177.83 27.9C178.496 29.4667 178.83 31.1167 178.83 32.85C178.83 34.55 178.496 36.1667 177.83 37.7C177.196 39.2333 176.296 40.5833 175.13 41.75C173.963 42.9167 172.596 43.8333 171.03 44.5C169.463 45.1667 167.813 45.5 166.08 45.5ZM166.08 24.55C163.846 24.55 161.93 25.35 160.33 26.95C159.563 27.7167 158.963 28.6167 158.53 29.65C158.096 30.6833 157.88 31.75 157.88 32.85C157.88 33.95 158.096 35 158.53 36C158.963 37 159.563 37.8833 160.33 38.65C161.096 39.4167 161.963 40.0167 162.93 40.45C163.93 40.8833 164.98 41.1 166.08 41.1C167.18 41.1 168.246 40.8833 169.28 40.45C170.313 40.0167 171.196 39.4167 171.93 38.65C172.663 37.8833 173.246 37 173.68 36C174.113 35 174.33 33.95 174.33 32.85C174.33 31.75 174.113 30.6833 173.68 29.65C173.246 28.6167 172.663 27.7167 171.93 26.95C171.196 26.1833 170.313 25.6 169.28 25.2C168.28 24.7667 167.213 24.55 166.08 24.55Z" fill="#020202"/>
<path d="M202.648 55.9V41.9C201.648 43.0667 200.398 44 198.898 44.7C197.431 45.3667 195.948 45.7 194.448 45.7C192.748 45.7 191.114 45.3667 189.548 44.7C188.014 44.0333 186.681 43.1167 185.548 41.95C184.381 40.75 183.464 39.3833 182.798 37.85C182.164 36.3167 181.848 34.6833 181.848 32.95C181.848 31.2167 182.164 29.5833 182.798 28.05C183.464 26.4833 184.381 25.1 185.548 23.9C186.681 22.7 188.014 21.7833 189.548 21.15C191.114 20.4833 192.748 20.15 194.448 20.15C196.014 20.15 197.514 20.5333 198.948 21.3C200.381 22.0333 201.614 23.0333 202.648 24.3V20.85H207.098V55.9H202.648ZM194.448 24.7C193.348 24.7 192.298 24.9167 191.298 25.35C190.298 25.75 189.431 26.3333 188.698 27.1C187.964 27.8667 187.381 28.7667 186.948 29.8C186.548 30.8 186.348 31.85 186.348 32.95C186.348 34.05 186.548 35.1 186.948 36.1C187.381 37.1 187.964 37.9833 188.698 38.75C189.431 39.5167 190.298 40.1167 191.298 40.55C192.298 40.9833 193.348 41.2 194.448 41.2C195.548 41.2 196.598 40.9833 197.598 40.55C198.598 40.1167 199.464 39.5167 200.198 38.75C200.931 37.9833 201.514 37.1 201.948 36.1C202.381 35.1 202.598 34.05 202.598 32.95C202.598 31.85 202.381 30.8 201.948 29.8C201.514 28.7667 200.931 27.8667 200.198 27.1C199.464 26.3333 198.598 25.75 197.598 25.35C196.598 24.9167 195.548 24.7 194.448 24.7Z" fill="#020202"/>
<path d="M222.839 45.25V41.2L236.889 24.9H222.839V20.45H243.089V24.55L229.089 40.8H243.089V45.25H222.839Z" fill="#020202"/>
<path d="M250.93 34.65C250.93 35.45 251.213 36.2833 251.78 37.15C252.38 38.0167 253.063 38.75 253.83 39.35C255.23 40.45 256.863 41 258.73 41C261.697 41 264.113 39.5667 265.98 36.7L269.78 38.95C268.48 41.05 266.88 42.6667 264.98 43.8C263.08 44.9333 260.997 45.5 258.73 45.5C257.03 45.5 255.413 45.1833 253.88 44.55C252.347 43.8833 250.997 42.9667 249.83 41.8C248.663 40.6333 247.747 39.2833 247.08 37.75C246.447 36.2167 246.13 34.6 246.13 32.9C246.13 31.2 246.447 29.5833 247.08 28.05C247.747 26.4833 248.663 25.1167 249.83 23.95C250.963 22.7833 252.297 21.8833 253.83 21.25C255.397 20.6167 257.03 20.3 258.73 20.3C260.43 20.3 262.047 20.6167 263.58 21.25C265.147 21.8833 266.497 22.7833 267.63 23.95C270.097 26.4833 271.33 29.4167 271.33 32.75C271.33 33.35 271.28 33.9833 271.18 34.65H250.93ZM258.73 24.4C257.363 24.4 256.08 24.7 254.88 25.3C253.68 25.9 252.713 26.7 251.98 27.7C251.28 28.6667 250.93 29.7 250.93 30.8H266.53C266.53 29.7 266.163 28.6667 265.43 27.7C264.73 26.7 263.78 25.9 262.58 25.3C261.38 24.7 260.097 24.4 258.73 24.4Z" fill="#020202"/>
<path d="M286.979 25.05C286.179 24.6833 285.462 24.5 284.829 24.5C283.496 24.5 282.396 24.9667 281.529 25.9C280.596 26.9 280.129 28.05 280.129 29.35V45.25H275.829V29.35C275.829 27.55 276.279 25.9 277.179 24.4C278.112 22.9 279.379 21.7333 280.979 20.9C282.179 20.3333 283.462 20.05 284.829 20.05C285.929 20.05 286.979 20.25 287.979 20.65C288.979 21.05 290.029 21.7 291.129 22.6L286.979 25.05Z" fill="#020202"/>
<path d="M303.311 45.5C301.611 45.5 299.994 45.1667 298.461 44.5C296.928 43.8333 295.578 42.9167 294.411 41.75C293.244 40.5833 292.328 39.2333 291.661 37.7C290.994 36.1667 290.661 34.55 290.661 32.85C290.661 31.1167 290.994 29.4667 291.661 27.9C292.328 26.3333 293.244 24.9667 294.411 23.8C295.578 22.6333 296.928 21.7333 298.461 21.1C299.994 20.4333 301.611 20.1 303.311 20.1C305.044 20.1 306.694 20.4333 308.261 21.1C309.828 21.7333 311.194 22.6333 312.361 23.8C313.528 24.9667 314.428 26.3333 315.061 27.9C315.728 29.4667 316.061 31.1167 316.061 32.85C316.061 34.55 315.728 36.1667 315.061 37.7C314.428 39.2333 313.528 40.5833 312.361 41.75C311.194 42.9167 309.828 43.8333 308.261 44.5C306.694 45.1667 305.044 45.5 303.311 45.5ZM303.311 24.55C301.078 24.55 299.161 25.35 297.561 26.95C296.794 27.7167 296.194 28.6167 295.761 29.65C295.328 30.6833 295.111 31.75 295.111 32.85C295.111 33.95 295.328 35 295.761 36C296.194 37 296.794 37.8833 297.561 38.65C298.328 39.4167 299.194 40.0167 300.161 40.45C301.161 40.8833 302.211 41.1 303.311 41.1C304.411 41.1 305.478 40.8833 306.511 40.45C307.544 40.0167 308.428 39.4167 309.161 38.65C309.894 37.8833 310.478 37 310.911 36C311.344 35 311.561 33.95 311.561 32.85C311.561 31.75 311.344 30.6833 310.911 29.65C310.478 28.6167 309.894 27.7167 309.161 26.95C308.428 26.1833 307.544 25.6 306.511 25.2C305.511 24.7667 304.444 24.55 303.311 24.55Z" fill="#020202"/>
</svg>
