<svg width="77" height="54" viewBox="0 0 77 54" fill="none" xmlns="http://www.w3.org/2000/svg">
<path d="M73.9262 21.2469L68.6152 15.9359L63.3042 10.625L57.9902 5.31401L52.6823 0.00305176H52.6793L40.0074 12.6749L45.3183 17.9859L52.6793 10.625L57.9902 15.9359L63.3012 21.2469L66.0344 23.9802C67.459 25.4048 67.459 27.714 66.0344 29.1386L63.3042 31.8719H63.3012L57.9933 37.1829L52.6823 42.4938H52.6793L43.1708 32.9853H32.5488L36.7464 37.1829L42.0543 42.4938H42.0573L52.6793 53.1158H52.6823L57.9902 47.8048L63.3042 42.4938L68.6152 37.1829L73.9231 31.8719H73.9262L73.9292 31.8689C76.8608 28.9342 76.8608 24.1785 73.9262 21.2469Z" fill="#020202"/>
<path d="M18.1346 37.1829L12.8236 31.8719V31.8689L10.3527 29.3979C8.78476 27.83 8.78476 25.2858 10.3527 23.7179L12.8236 21.2469C15.7582 18.3123 15.7582 13.5596 12.8236 10.625L2.20172 21.2469L2.19867 21.25C-0.732889 24.1846 -0.732889 28.9373 2.19867 31.8719H2.20172L23.4456 53.1158H23.4486C26.3832 50.1812 26.3832 45.4284 23.4486 42.4938L18.1346 37.1829Z" fill="#020202"/>
<path d="M23.3452 30.2399H46.3217C48.3564 28.2052 48.3564 24.9075 46.3248 22.8759L46.1783 22.7295L44.6927 21.2439H44.6897L39.3818 15.9329L34.0708 10.6219L28.7568 5.31098L23.4489 0H23.4458C20.5112 2.93461 20.5112 7.68733 23.4458 10.6219H23.4489L28.7598 15.9329L34.0677 21.2439H34.0098L35.4954 22.7295H23.4855C22.5093 22.7295 21.5728 23.1169 20.8803 23.8094L20.7369 23.9527C19.3001 25.3895 19.2971 27.7232 20.7369 29.163C21.4294 29.8525 22.3659 30.2399 23.3452 30.2399Z" fill="#020202"/>
</svg>
