<svg id="Capa_1" enable-background="new 0 0 510 510" height="512" viewBox="0 0 510 510" width="512" xmlns="http://www.w3.org/2000/svg" xmlns:xlink="http://www.w3.org/1999/xlink"><linearGradient id="lg1"><stop offset="0" stop-color="#ffdcbd"/><stop offset="1" stop-color="#ffa9b1"/></linearGradient><linearGradient id="SVGID_1_" gradientUnits="userSpaceOnUse" x1="215.597" x2="349.023" xlink:href="#lg1" y1="420.186" y2="500.862"/><linearGradient id="lg2"><stop offset="0" stop-color="#ffa9b1" stop-opacity="0"/><stop offset="1" stop-color="#f89580"/></linearGradient><linearGradient id="SVGID_2_" gradientUnits="userSpaceOnUse" x1="278.829" x2="278.829" xlink:href="#lg2" y1="504.784" y2="439.294"/><linearGradient id="SVGID_3_" gradientUnits="userSpaceOnUse" x1="305.12" x2="404.804" xlink:href="#lg1" y1="293.773" y2="354.047"/><linearGradient id="SVGID_4_" gradientUnits="userSpaceOnUse" x1="430.866" x2="401.5" xlink:href="#lg2" y1="358.799" y2="358.799"/><linearGradient id="lg3"><stop offset="0" stop-color="#537983"/><stop offset="1" stop-color="#3e5959"/></linearGradient><linearGradient id="SVGID_5_" gradientUnits="userSpaceOnUse" x1="108.314" x2="405.814" xlink:href="#lg3" y1="104.764" y2="402.263"/><linearGradient id="SVGID_6_" gradientUnits="userSpaceOnUse" x1="390.297" x2="-34.673" xlink:href="#lg3" y1="386.747" y2="-38.224"/><linearGradient id="lg4"><stop offset="0" stop-color="#eef5f6"/><stop offset="1" stop-color="#cbe5e8"/></linearGradient><linearGradient id="SVGID_7_" gradientUnits="userSpaceOnUse" x1="188.693" x2="382.637" xlink:href="#lg4" y1="215.877" y2="409.821"/><linearGradient id="SVGID_8_" gradientUnits="userSpaceOnUse" x1="94.082" x2="215.417" y1="37.251" y2="158.586"><stop offset="0" stop-color="#60b7ff"/><stop offset="1" stop-color="#0268b4"/></linearGradient><linearGradient id="lg5"><stop offset="0" stop-color="#c1e9af"/><stop offset="1" stop-color="#4fc123"/></linearGradient><linearGradient id="SVGID_9_" gradientUnits="userSpaceOnUse" x1="235.957" x2="369.957" xlink:href="#lg5" y1="40.709" y2="174.709"/><linearGradient id="lg6"><stop offset="0" stop-color="#fe99a0"/><stop offset="1" stop-color="#fd4755"/></linearGradient><linearGradient id="SVGID_10_" gradientUnits="userSpaceOnUse" x1="108.025" x2="223.799" xlink:href="#lg6" y1="195.309" y2="311.083"/><linearGradient id="SVGID_11_" gradientUnits="userSpaceOnUse" x1="246.713" x2="345.25" y1="195.287" y2="293.824"><stop offset="0" stop-color="#ffe177"/><stop offset="1" stop-color="#fe9738"/></linearGradient><linearGradient id="SVGID_12_" gradientUnits="userSpaceOnUse" x1="144.073" x2="195.927" xlink:href="#lg4" y1="45.573" y2="97.427"/><linearGradient id="SVGID_13_" gradientUnits="userSpaceOnUse" x1="126.632" x2="210.366" xlink:href="#lg4" y1="121.371" y2="205.105"/><linearGradient id="SVGID_14_" gradientUnits="userSpaceOnUse" x1="282.783" x2="334.637" xlink:href="#lg4" y1="45.573" y2="97.427"/><linearGradient id="SVGID_15_" gradientUnits="userSpaceOnUse" x1="265.342" x2="349.076" xlink:href="#lg4" y1="121.371" y2="205.105"/><linearGradient id="SVGID_16_" gradientUnits="userSpaceOnUse" x1="144.073" x2="195.927" xlink:href="#lg4" y1="196.573" y2="248.427"/><linearGradient id="SVGID_17_" gradientUnits="userSpaceOnUse" x1="126.632" x2="210.366" xlink:href="#lg4" y1="272.371" y2="356.105"/><linearGradient id="SVGID_18_" gradientUnits="userSpaceOnUse" x1="282.783" x2="334.637" xlink:href="#lg4" y1="196.573" y2="248.427"/><linearGradient id="SVGID_19_" gradientUnits="userSpaceOnUse" x1="265.342" x2="349.076" xlink:href="#lg4" y1="272.371" y2="356.105"/><linearGradient id="lg7"><stop offset="0" stop-color="#3e5959" stop-opacity="0"/><stop offset="1" stop-color="#384949"/></linearGradient><linearGradient id="SVGID_20_" gradientUnits="userSpaceOnUse" x1="236.521" x2="236.521" xlink:href="#lg7" y1="418.43" y2="468.272"/><linearGradient id="SVGID_21_" gradientUnits="userSpaceOnUse" x1="236.521" x2="236.521" y1="418.816" y2="309.791"><stop offset="0" stop-color="#eef5f6" stop-opacity="0"/><stop offset="1" stop-color="#fff"/></linearGradient><linearGradient id="SVGID_22_" gradientUnits="userSpaceOnUse" x1="146.496" x2="196.352" xlink:href="#lg5" y1="365.497" y2="415.352"/><linearGradient id="SVGID_23_" gradientUnits="userSpaceOnUse" x1="284.818" x2="334.673" xlink:href="#lg6" y1="365.497" y2="415.352"/><linearGradient id="SVGID_24_" gradientUnits="userSpaceOnUse" x1="365.903" x2="365.903" xlink:href="#lg7" y1="327.246" y2="262.312"/><linearGradient id="SVGID_25_" gradientUnits="userSpaceOnUse" x1="346.349" x2="446.033" xlink:href="#lg1" y1="225.586" y2="285.86"/><linearGradient id="SVGID_26_" gradientUnits="userSpaceOnUse" x1="278.829" x2="278.829" xlink:href="#lg2" y1="485.659" y2="504.784"/><g><g><path d="m363.444 510h-169.231c-13.764 0-24.921-11.158-24.921-24.921v-53.319c0-13.764 11.158-24.921 24.921-24.921h169.231c13.763 0 24.921 11.158 24.921 24.921v53.319c0 13.763-11.157 24.921-24.921 24.921z" fill="url(#SVGID_1_)"/><path d="m169.292 451.465v14.199l44.336 44.336h149.816c13.764 0 24.921-11.158 24.921-24.921v-33.614z" fill="url(#SVGID_2_)"/><path d="m437.776 250.358v114.025c0 45.853-37.171 83.025-83.025 83.025v-197.05z" fill="url(#SVGID_3_)"/><path d="m400.729 279.336h-8.114v158.927c26.807-13.767 45.16-41.671 45.16-73.88v-48.001z" fill="url(#SVGID_4_)"/><g><g><path d="m372.117 465.942h-271.192c-15.851 0-28.701-12.85-28.701-28.701v-408.54c0-15.851 12.85-28.701 28.701-28.701h271.192c15.851 0 28.701 12.85 28.701 28.701v408.541c0 15.85-12.85 28.7-28.701 28.7z" fill="url(#SVGID_5_)"/><path d="m361.609 452.044h-250.176c-14.777 0-26.756-11.979-26.756-26.756v-384.634c0-14.777 11.979-26.756 26.756-26.756h250.177c14.777 0 26.756 11.979 26.756 26.756v384.635c-.001 14.776-11.98 26.755-26.757 26.755z" fill="url(#SVGID_6_)"/><path d="m350.482 80.807h-67.016c-2.027 0-8.255 13.909-13.909 13.909h-66.07c-5.655 0-10.239-4.584-10.239-10.239 0 0-1.643-3.671-3.671-3.671l-67.016 70.715c-13.668 0-24.747 11.08-24.747 24.747v237.118c0 13.668 11.08 24.747 24.747 24.747h227.921c13.668 0 24.747-11.08 24.747-24.747v-238.87c0-13.667-11.08-93.709-24.747-93.709z" fill="url(#SVGID_7_)"/><g><g><path d="m236.521 41.72h-33.03c-5.66 0-10.24-4.59-10.24-10.24 0-1.02-.41-1.93-1.08-2.6-.66-.66-1.58-1.07-2.59-1.07h-67.02c-13.67 0-24.75 11.08-24.75 24.74v126.4h138.71z" fill="url(#SVGID_8_)"/><path d="m375.231 178.95v-126.4c0-13.66-11.08-24.74-24.75-24.74h-67.01c-2.03 0-3.68 1.64-3.68 3.67 0 2.82-1.15 5.38-3 7.24-1.85 1.85-4.41 3-7.23 3h-33.04v137.23z" fill="url(#SVGID_9_)"/><path d="m97.811 178.95h138.71v151h-138.71z" fill="url(#SVGID_10_)"/><path d="m236.521 178.95h138.71v151h-138.71z" fill="url(#SVGID_11_)"/></g><g><circle cx="170" cy="71.5" fill="url(#SVGID_12_)" r="36.667"/><path d="m236.521 159.6c0-10.483-4.584-20.488-12.653-27.18-14.621-12.125-33.388-19.42-53.868-19.42-25.128 0-47.692 10.969-63.169 28.379-5.797 6.521-9.02 14.932-9.02 23.657v13.914h138.71z" fill="url(#SVGID_13_)"/></g><g><circle cx="308.71" cy="71.5" fill="url(#SVGID_14_)" r="36.667"/><path d="m375.231 159.6c0-10.483-4.584-20.488-12.653-27.18-14.621-12.125-33.388-19.42-53.868-19.42-25.128 0-47.692 10.969-63.169 28.379-5.797 6.521-9.02 14.932-9.02 23.657v13.914h138.71z" fill="url(#SVGID_15_)"/></g><g><circle cx="170" cy="222.5" fill="url(#SVGID_16_)" r="36.667"/><path d="m236.521 310.6c0-10.483-4.584-20.488-12.653-27.18-14.621-12.125-33.388-19.42-53.868-19.42-25.128 0-47.692 10.969-63.169 28.379-5.797 6.521-9.02 14.932-9.02 23.657v13.914h138.71z" fill="url(#SVGID_17_)"/></g><g><circle cx="308.71" cy="222.5" fill="url(#SVGID_18_)" r="36.667"/><path d="m375.231 310.6c0-10.483-4.584-20.488-12.653-27.18-14.621-12.125-33.388-19.42-53.868-19.42-25.128 0-47.692 10.969-63.169 28.379-5.797 6.521-9.02 14.932-9.02 23.657v13.914h138.71z" fill="url(#SVGID_19_)"/></g></g><path d="m72.224 390.611v46.63c0 15.851 12.85 28.701 28.701 28.701h271.192c15.851 0 28.701-12.85 28.701-28.701v-46.63z" fill="url(#SVGID_20_)"/></g><path d="m97.813 329.951v83.437c0 13.667 11.08 24.747 24.747 24.747h227.921c13.667 0 24.747-11.08 24.747-24.747v-83.437z" fill="url(#SVGID_21_)"/><g><circle cx="167.36" cy="386.361" fill="url(#SVGID_22_)" r="29.364"/><circle cx="305.682" cy="386.361" fill="url(#SVGID_23_)" r="29.364"/></g></g><path d="m400.818 339.505v-69.829h-69.829z" fill="url(#SVGID_24_)"/><path d="m437.776 279.336h-79.718c-23.353 0-42.285-18.932-42.285-42.285v-.693c0-15.314 12.414-27.728 27.728-27.728h51.99c23.353 0 42.285 18.932 42.285 42.285z" fill="url(#SVGID_25_)"/><path d="m169.292 472.329v12.75c0 13.764 11.158 24.921 24.921 24.921h169.231c13.764 0 24.921-11.158 24.921-24.921v-12.75z" fill="url(#SVGID_26_)"/></g></g></svg>